<svg width="22" height="23" viewBox="0 0 22 23" fill="none" xmlns="http://www.w3.org/2000/svg">
<g clip-path="url(#clip0_13_208)">
<path d="M21.2791 11.4616C21.2791 9.36965 20.6551 7.32471 19.486 5.58535C18.3169 3.84598 16.6552 2.49031 14.7111 1.68977C12.767 0.889226 10.6277 0.679768 8.56387 1.08788C6.5 1.49599 4.60422 2.50335 3.11625 3.98256C1.62829 5.46177 0.614969 7.34639 0.20444 9.39811C-0.206088 11.4498 0.00460994 13.5765 0.809891 15.5092C1.61517 17.4419 2.97887 19.0938 4.72853 20.256C6.47819 21.4182 8.53524 22.0385 10.6395 22.0385C13.4605 22.0358 16.1651 20.9206 18.1598 18.9376C20.1545 16.9546 21.2764 14.2659 21.2791 11.4616ZM11.458 20.3706V13.9024H13.9132C14.1303 13.9024 14.3385 13.8167 14.492 13.6641C14.6454 13.5115 14.7317 13.3046 14.7317 13.0888C14.7317 12.873 14.6454 12.6661 14.492 12.5135C14.3385 12.3609 14.1303 12.2752 13.9132 12.2752H11.458V9.83435C11.458 9.40279 11.6304 8.9889 11.9374 8.68373C12.2444 8.37857 12.6607 8.20713 13.0948 8.20713H14.7317C14.9487 8.20713 15.1569 8.12141 15.3104 7.96883C15.4639 7.81625 15.5501 7.60931 15.5501 7.39352C15.5501 7.17774 15.4639 6.9708 15.3104 6.81821C15.1569 6.66563 14.9487 6.57991 14.7317 6.57991H13.0948C12.2274 6.5826 11.3963 6.92633 10.7829 7.53608C10.1696 8.14582 9.82381 8.97204 9.82111 9.83435V12.2752H7.36584C7.14878 12.2752 6.94061 12.3609 6.78712 12.5135C6.63364 12.6661 6.54741 12.873 6.54741 13.0888C6.54741 13.3046 6.63364 13.5115 6.78712 13.6641C6.94061 13.8167 7.14878 13.9024 7.36584 13.9024H9.82111V20.3706C7.51396 20.1612 5.37682 19.0757 3.85421 17.3399C2.33161 15.604 1.54076 13.3514 1.64618 11.0507C1.7516 8.75 2.74516 6.57824 4.4202 4.98718C6.09523 3.39612 8.3228 2.50825 10.6395 2.50825C12.9563 2.50825 15.1838 3.39612 16.8589 4.98718C18.5339 6.57824 19.5275 8.75 19.6329 11.0507C19.7383 13.3514 18.9475 15.604 17.4249 17.3399C15.9023 19.0757 13.7651 20.1612 11.458 20.3706Z" fill="white"/>
</g>
<defs>
<clipPath id="clip0_13_208">
<rect width="21.2791" height="21.1538" fill="white" transform="translate(0 0.884644)"/>
</clipPath>
</defs>
</svg>
