<svg width="22" height="23" viewBox="0 0 22 23" fill="none" xmlns="http://www.w3.org/2000/svg">
<g clip-path="url(#clip0_13_206)">
<path fill-rule="evenodd" clip-rule="evenodd" d="M6.97406 0.948105C8.10862 0.896182 8.47037 0.884644 11.3605 0.884644C14.2505 0.884644 14.6123 0.897144 15.7459 0.948105C16.8795 0.999067 17.6533 1.17887 18.3303 1.43945C19.0393 1.7058 19.6825 2.12214 20.2145 2.66061C20.7561 3.18849 21.174 3.82695 21.4409 4.53272C21.704 5.2058 21.8839 5.97503 21.9362 7.10003C21.9884 8.22984 22 8.58945 22 11.4616C22 14.3346 21.9874 14.6943 21.9362 15.8221C21.8849 16.9471 21.704 17.7164 21.4409 18.3895C21.174 19.0953 20.7554 19.7348 20.2145 20.2635C19.6825 20.802 19.0393 21.2173 18.3303 21.4827C17.6533 21.7443 16.8795 21.9231 15.7478 21.975C14.6123 22.027 14.2505 22.0385 11.3605 22.0385C8.47037 22.0385 8.10862 22.026 6.97406 21.975C5.8424 21.9241 5.06862 21.7443 4.39156 21.4827C3.68153 21.2173 3.03823 20.8012 2.50642 20.2635C1.96514 19.7353 1.54627 19.0961 1.27901 18.3904C1.01689 17.7173 0.836984 16.9481 0.784754 15.8231C0.732523 14.6933 0.720917 14.3337 0.720917 11.4616C0.720917 8.58849 0.733491 8.22888 0.784754 7.10195C0.836017 5.97503 1.01689 5.2058 1.27901 4.53272C1.54666 3.82703 1.96586 3.18783 2.50739 2.65964C3.03844 2.12166 3.6811 1.70526 4.39059 1.43945C5.06765 1.17887 5.84143 1.00003 6.97309 0.948105H6.97406ZM15.6598 2.85195C14.5378 2.80099 14.2012 2.79041 11.3605 2.79041C8.5197 2.79041 8.1831 2.80099 7.06111 2.85195C6.02327 2.89907 5.46035 3.07118 5.08506 3.21637C4.58887 3.40868 4.2339 3.63657 3.86151 4.00676C3.50852 4.34816 3.23686 4.76376 3.06645 5.22311C2.9204 5.59618 2.74726 6.1558 2.69987 7.18753C2.64861 8.30291 2.63797 8.63753 2.63797 11.4616C2.63797 14.2856 2.64861 14.6202 2.69987 15.7356C2.74726 16.7673 2.9204 17.327 3.06645 17.7C3.23668 18.1587 3.50848 18.575 3.86151 18.9164C4.20488 19.2673 4.62369 19.5375 5.08506 19.7068C5.46035 19.852 6.02327 20.0241 7.06111 20.0712C8.1831 20.1221 8.51873 20.1327 11.3605 20.1327C14.2022 20.1327 14.5378 20.1221 15.6598 20.0712C16.6976 20.0241 17.2606 19.852 17.6358 19.7068C18.132 19.5145 18.487 19.2866 18.8594 18.9164C19.2124 18.575 19.4842 18.1587 19.6545 17.7C19.8005 17.327 19.9736 16.7673 20.021 15.7356C20.0723 14.6202 20.0829 14.2856 20.0829 11.4616C20.0829 8.63753 20.0723 8.30291 20.021 7.18753C19.9736 6.1558 19.8005 5.59618 19.6545 5.22311C19.461 4.72984 19.2318 4.37695 18.8594 4.00676C18.516 3.65587 18.0979 3.38581 17.6358 3.21637C17.2606 3.07118 16.6976 2.89907 15.6598 2.85195ZM10.0015 14.7221C10.7604 15.0362 11.6055 15.0786 12.3924 14.8421C13.1793 14.6055 13.8592 14.1048 14.3159 13.4253C14.7727 12.7458 14.9779 11.9297 14.8967 11.1165C14.8154 10.3032 14.4527 9.54327 13.8704 8.96638C13.4992 8.5976 13.0504 8.31523 12.5563 8.13959C12.0621 7.96395 11.535 7.89941 11.0127 7.95062C10.4905 8.00183 9.98617 8.16751 9.53607 8.43573C9.08597 8.70396 8.70129 9.06805 8.40972 9.50181C8.11816 9.93557 7.92697 10.4282 7.8499 10.9442C7.77284 11.4603 7.81183 11.9868 7.96406 12.4861C8.11629 12.9854 8.37798 13.4448 8.73028 13.8315C9.08259 14.2181 9.51674 14.5223 10.0015 14.7221ZM7.49346 7.61734C8.00128 7.1125 8.60415 6.71205 9.26765 6.43884C9.93115 6.16563 10.6423 6.025 11.3605 6.025C12.0786 6.025 12.7898 6.16562 13.4533 6.43884C14.1167 6.71205 14.7196 7.1125 15.2274 7.61734C15.7353 8.12217 16.1381 8.72149 16.4129 9.38108C16.6877 10.0407 16.8292 10.7476 16.8292 11.4616C16.8292 12.1755 16.6877 12.8825 16.4129 13.5421C16.1381 14.2016 15.7353 14.801 15.2274 15.3058C14.2019 16.3254 12.8109 16.8981 11.3605 16.8981C9.91005 16.8981 8.51905 16.3254 7.49346 15.3058C6.46788 14.2862 5.89171 12.9034 5.89171 11.4616C5.89171 10.0197 6.46788 8.63689 7.49346 7.61734ZM18.0421 6.83464C18.1679 6.71663 18.2687 6.57472 18.3383 6.41731C18.408 6.2599 18.4452 6.09019 18.4478 5.91823C18.4503 5.74627 18.4181 5.57555 18.353 5.41619C18.288 5.25683 18.1915 5.11206 18.0691 4.99045C17.9468 4.86884 17.8012 4.77287 17.6409 4.70822C17.4806 4.64356 17.3088 4.61154 17.1359 4.61405C16.9629 4.61656 16.7922 4.65354 16.6338 4.72281C16.4755 4.79209 16.3327 4.89224 16.214 5.01734C15.9831 5.26063 15.8568 5.5838 15.8617 5.91823C15.8666 6.25266 16.0024 6.57203 16.2403 6.80853C16.4782 7.04504 16.7994 7.18006 17.1359 7.18493C17.4723 7.18981 17.7973 7.06415 18.0421 6.83464Z" fill="white"/>
</g>
<defs>
<clipPath id="clip0_13_206">
<rect width="21.2791" height="21.1538" fill="white" transform="translate(0.720917 0.884644)"/>
</clipPath>
</defs>
</svg>
