<svg width="60" height="35" viewBox="0 0 60 35" fill="none" xmlns="http://www.w3.org/2000/svg">
<path d="M54.5455 10.5H60V24.5H54.5455V10.5ZM0 10.5H5.45455V24.5H0V10.5ZM46.3636 7C46.3636 5.14348 45.789 3.36301 44.766 2.05025C43.7431 0.737498 42.3557 0 40.9091 0H19.0909C17.6443 0 16.2569 0.737498 15.234 2.05025C14.211 3.36301 13.6364 5.14348 13.6364 7C12.1897 7 10.8023 7.7375 9.77942 9.05025C8.75649 10.363 8.18182 12.1435 8.18182 14V21C8.18182 22.8565 8.75649 24.637 9.77942 25.9497C10.8023 27.2625 12.1897 28 13.6364 28C13.6364 29.8565 14.211 31.637 15.234 32.9497C16.2569 34.2625 17.6443 35 19.0909 35H21.8945L26.2636 25.284C26.6423 24.4424 27.187 23.7435 27.8429 23.2575C28.4987 22.7716 29.2427 22.5158 30 22.5158C30.7573 22.5158 31.5013 22.7716 32.1572 23.2575C32.813 23.7435 33.3577 24.4424 33.7364 25.284L38.1055 35H40.9091C42.3557 35 43.7431 34.2625 44.766 32.9497C45.789 31.637 46.3636 29.8565 46.3636 28C47.8103 28 49.1977 27.2625 50.2206 25.9497C51.2435 24.637 51.8182 22.8565 51.8182 21V14C51.8182 12.1435 51.2435 10.363 50.2206 9.05025C49.1977 7.7375 47.8103 7 46.3636 7ZM43.6364 17.5H16.3636V10.5H43.6364V17.5Z" fill="white"/>
</svg>
